<?xml version="1.0" standalone="no"?>
<!DOCTYPE svg PUBLIC "-//W3C//DTD SVG 20010904//EN"
 "http://www.w3.org/TR/2001/REC-SVG-20010904/DTD/svg10.dtd">
<svg version="1.0" xmlns="http://www.w3.org/2000/svg"
 width="4167.000000pt" height="4167.000000pt" viewBox="0 0 4167.000000 4167.000000"
 preserveAspectRatio="xMidYMid meet">
<metadata>
Created by potrace 1.11, written by Peter Selinger 2001-2013
</metadata>
<g transform="translate(0.000000,4167.000000) scale(0.100000,-0.100000)"
fill="#000000" stroke="none">
<path d="M5960 32433 c1 -5 1453 -5451 3229 -12103 l3228 -12095 1973 0 1974
0 2225 7338 c1528 5040 2228 7333 2233 7320 5 -10 994 -3269 2199 -7243 1204
-3974 2203 -7269 2220 -7322 l30 -98 1972 0 1972 0 3219 12003 c1771 6601
3232 12048 3247 12105 l28 102 -2467 -2 -2466 -3 -1752 -7090 c-965 -3899
-1813 -7330 -1885 -7624 -75 -304 -135 -528 -139 -520 -4 8 -999 3440 -2211
7627 l-2204 7612 -1769 -2 -1770 -3 -2206 -7617 c-1213 -4189 -2207 -7619
-2210 -7621 -3 -3 -844 3420 -1869 7606 -1026 4187 -1867 7618 -1869 7625 -3
9 -506 12 -2468 12 -1355 0 -2464 -3 -2464 -7z"/>
</g>
</svg>
